<?xml version="1.0" standalone="no"?>
<!DOCTYPE svg PUBLIC "-//W3C//DTD SVG 1.1//EN" "http://www.w3.org/Graphics/SVG/1.1/DTD/svg11.dtd" >
<svg xmlns="http://www.w3.org/2000/svg" xmlns:xlink="http://www.w3.org/1999/xlink" version="1.1">
<metadata></metadata>
<defs>
<font id="soft_eleganceregular" horiz-adv-x="716" >
<font-face units-per-em="2048" ascent="1638" descent="-410" />
<missing-glyph horiz-adv-x="598" />
<glyph horiz-adv-x="0" />
<glyph horiz-adv-x="682" />
<glyph d="M43 1352h135q23 -45 40.5 -68.5t39.5 -40.5q45 -31 98 -31q51 0 99 29q23 16 41 41t41 70h137q-31 -84 -62.5 -133.5t-72.5 -83.5q-86 -70 -183 -70q-94 0 -180 70q-41 35 -72.5 84t-60.5 133z" />
<glyph d="M242 1096v233h231v-231z" />
<glyph d="M156 1212q0 84 57 144q63 59 143 59q84 0 144 -59q61 -62 61 -144q0 -84 -59.5 -143t-145.5 -59q-80 0 -143 59q-57 59 -57 143zM262 1212q0 -41 27 -67q29 -29 67 -29q41 0 70 28.5t29 67.5q0 41 -27 68q-33 29 -72 29t-67 -29q-27 -27 -27 -68z" />
<glyph unicode="&#xa;" d="M39 1040l246 373h241l-360 -373h-127zM352 1040l246 373h240q-72 -78 -117 -123l-82 -82t-76 -77.5t-82 -90.5h-129z" />
<glyph d="M184 -176q0 35 9.5 67.5t31.5 61.5q45 61 127 94h146q-57 -47 -80 -70.5t-43 -46.5q-33 -41 -33 -75q0 -47 27 -68q18 -10 37.5 -17.5t44.5 -7.5l63 5v-127l-108 -15q-94 0 -154 51q-68 55 -68 148z" />
<glyph d="M29 1411h137l190 -211l195 211h137l-258 -389h-145z" />
<glyph unicode="&#xd;" horiz-adv-x="403" d="M127 -27v973h149v-973h-149z" />
<glyph horiz-adv-x="290" d="M-483 -82l1112 1524h145l-1114 -1524h-143z" />
<glyph horiz-adv-x="1030" d="M51 813v131h170v107q0 90 22.5 161.5t71.5 124.5q100 104 260 105q137 0 232 -66q94 -61 113 -243l-52 -3h-98q-6 59 -20.5 91t-36.5 49q-45 39 -142 39q-96 0 -147 -62q-53 -63 -53 -196v-105h192v-131h-192v-842h-150v840h-170zM768 -27v973h150v-973h-150z" />
<glyph horiz-adv-x="1007" d="M-66 274v172l248 203v774h160v-645l342 279v-172l-342 -279v-489h690v-144h-850v504z" />
<glyph horiz-adv-x="403" d="M-74 369v166l199 165v723h149v-598l205 170v-166l-205 -170v-686h-149v562z" />
<glyph horiz-adv-x="1366" d="M31 37l1022 1243h-971v143h1214l19 -71l-1022 -1235h1026v-144h-1268zM362 1888h138l190 -211l195 211h137l-258 -389h-146z" />
<glyph horiz-adv-x="851" d="M12 35l586 768h-549v143h772l17 -63l-582 -766h580v-144h-803zM102 1411h138l190 -211l195 211h137l-258 -389h-146z" />
<glyph unicode=" "  horiz-adv-x="598" />
<glyph unicode="&#x09;" horiz-adv-x="598" />
<glyph unicode="&#xa0;" horiz-adv-x="598" />
<glyph unicode="!" horiz-adv-x="380" d="M96 1423h187l-37 -1056h-113zM98 -27v252h185v-252h-185z" />
<glyph unicode="&#x22;" horiz-adv-x="598" d="M66 1167v260h110l76 -116l-6 -205l-21 -211h-133zM346 1167v260h111l75 -116l-6 -205l-20 -211h-133z" />
<glyph unicode="#" horiz-adv-x="1419" d="M166 403v146h194l70 340h-264v145h295l86 422h149l-86 -422h332l86 422h150l-86 -420h161v-145h-192l-70 -340h262v-145h-292l-89 -433h-149l88 433h-332l-88 -433h-149l88 430h-164zM510 549h332l69 342h-331z" />
<glyph unicode="$" horiz-adv-x="1120" d="M86 135v174q90 -68 152.5 -104.5t121.5 -59.5q119 -47 207 -47q131 0 219 72q88 70 88 166q0 102 -86 162q-90 59 -284 118q-207 59 -305 138q-102 84 -103 245q0 156 135 271q109 88 254 106l2 168h150l-2 -168q90 -8 162 -37q51 -23 92 -45t80 -53v-178 q-61 49 -106.5 76.5t-92.5 50t-100.5 34t-118.5 11.5q-123 0 -213 -68q-84 -63 -84 -155t70 -142q41 -27 103 -54.5t151 -55.5q244 -74 346 -164q106 -88 106 -258q0 -160 -139 -275q-111 -88 -254 -106v-223h-150v223q-106 8 -198 49q-59 27 -110.5 57.5t-92.5 71.5z" />
<glyph unicode="%" horiz-adv-x="1501" d="M49 1087q0 147 105 250q109 104 249 105q147 0 252 -105t105 -250t-105 -249q-106 -106 -252 -107q-143 0 -251 105q-102 106 -103 251zM76 -49l1165 1483h170l-1167 -1483h-168zM188 1090q0 -90 64 -154q66 -66 154 -66t149 64q66 65 66 149q0 92 -64 154 q-61 66 -149 66q-92 0 -156 -63.5t-64 -149.5zM741 301q0 147 105 250q109 104 250 104q147 0 252 -104q106 -107 106 -250q0 -72 -25.5 -134.5t-78.5 -113.5q-109 -104 -254 -104q-143 0 -248 104q-106 106 -107 248zM881 303q0 -86 63 -149q66 -66 154 -66t153 62 q64 61 64 147q0 90 -64 154q-61 66 -151 65q-86 0 -154 -63q-66 -63 -65 -150z" />
<glyph unicode="&#x26;" horiz-adv-x="1323" d="M33 315q0 154 108 275q90 100 221 158l-18 18q-29 31 -50.5 61.5t-41.5 65.5q-47 84 -47 178q0 135 106 229q106 96 244 97q68 0 125 -20.5t108 -61.5q104 -86 105 -232q0 -143 -102 -249q-76 -76 -177 -129l271 -285q14 23 26.5 43t22.5 41q23 41 45 94t47 125h168 q-29 -88 -55.5 -150.5t-55.5 -121.5q-20 -41 -42.5 -77t-45.5 -69l316 -332h-207l-203 211q-84 -96 -180 -153q-133 -76 -299 -76q-193 0 -291 111q-98 106 -98 249zM201 334q0 -113 63 -170q68 -57 176 -58q111 0 201 54q39 23 77 56.5t77 78.5l-324 340 q-115 -51 -192.5 -123t-77.5 -178zM360 1073q0 -59 39 -125q18 -31 41 -58.5t49 -53.5q2 -4 9.5 -10.5t9.5 -8.5q113 49 164 105q69 69 69 151q0 78 -53 121q-57 51 -131 51q-72 0 -139 -49q-57 -43 -58 -123z" />
<glyph unicode="'" horiz-adv-x="477" d="M145 1167v260h111l76 -116l-6 -205l-21 -211h-133z" />
<glyph unicode="(" d="M96 473q0 328 131 569q129 240 283 381h182q-115 -100 -188.5 -198.5t-132.5 -218.5q-119 -242 -119 -533q0 -297 117 -532q59 -121 132.5 -219.5t190.5 -198.5h-182q-78 72 -146.5 165t-134.5 214q-133 244 -133 571z" />
<glyph unicode=")" d="M20 -477q57 49 105.5 98t87.5 100.5t71.5 105.5t61.5 114q119 236 119 532q0 297 -119 533q-59 119 -134 218t-192 199h183q80 -72 150.5 -165t135.5 -214q132 -241 132 -571q0 -328 -132 -569q-66 -121 -136 -215.5t-150 -165.5h-183z" />
<glyph unicode="*" horiz-adv-x="1007" d="M82 850q51 20 86 35.5t67.5 32t69.5 35t90 46.5q-53 27 -91 46.5t-70.5 36t-67.5 31.5l-84 36l80 143q33 -27 56.5 -45t45 -32.5t41 -27.5t43.5 -28q39 -23 103 -63q-4 59 -6.5 101t-4.5 79t-6 75t-10 91h160q-6 -55 -10.5 -93t-7.5 -75t-5 -78t-4 -100q63 41 102 63 q25 14 44.5 27.5t41 28t45 33t56.5 44.5l80 -143q-51 -20 -86 -35.5t-68 -32t-69.5 -36t-90.5 -46.5q53 -29 90 -47t70 -34.5t67.5 -32t86.5 -35.5l-80 -143q-33 27 -56.5 45t-45 32.5t-41 26.5t-44.5 29q-39 23 -102 63q2 -59 5 -101t5 -79t6.5 -75t10.5 -91h-160 q6 55 10 93t7 75t4 78t6 100q-63 -41 -103 -63q-25 -16 -44 -28.5t-40.5 -27t-45 -33t-56.5 -44.5z" />
<glyph unicode="+" horiz-adv-x="1419" d="M147 651v142h492v487h141v-485h492v-142h-492v-493h-141v491h-492z" />
<glyph unicode="," horiz-adv-x="380" d="M82 -160q8 10 15 17.5t12 13.5q6 4 14 13.5t10 15.5q8 27 12 73h-43v252h185v-190q0 -88 -39 -166q-12 -29 -32.5 -50.5t-43.5 -41.5q-12 -10 -29.5 -23.5t-60.5 -44.5v131z" />
<glyph unicode="-" horiz-adv-x="673" d="M68 492v126h536v-126h-536z" />
<glyph unicode="." horiz-adv-x="380" d="M98 -27v254h183v-254h-183z" />
<glyph unicode="/" horiz-adv-x="604" d="M-10 -45l467 1487h149l-467 -1487h-149z" />
<glyph unicode="0" horiz-adv-x="1075" d="M66 692v13q0 319 124 524q127 213 349 213q221 0 348 -213q125 -209 125 -524v-13q0 -319 -125 -524q-129 -213 -350 -213q-223 0 -347 213q-125 205 -124 524zM223 690q0 -254 90 -424q90 -162 226 -162q66 0 121 38t100 124q94 172 94 424v17q0 129 -23.5 234.5 t-68.5 189t-102.5 122.5t-122.5 39q-66 0 -120.5 -37.5t-101.5 -124.5q-92 -170 -92 -423v-17z" />
<glyph unicode="1" horiz-adv-x="720" d="M55 911l391 512h158v-1450h-158v1190l-282 -362z" />
<glyph unicode="2" horiz-adv-x="1075" d="M84 1104v194q31 29 65.5 50.5t75.5 44.5q88 49 211 49q182 0 312 -125q125 -125 124 -307q0 -139 -67 -287q-35 -74 -69 -131t-62 -98q-39 -53 -76 -106.5t-76 -104.5q-66 -80 -135 -160h619v-150h-906v66q72 72 128.5 134.5t105.5 115.5q51 55 102 120.5t103 141.5 q41 57 71.5 115.5t55.5 115.5q27 57 38 112.5t11 113.5q0 123 -82 202q-80 82 -205 82q-90 0 -162 -41q-37 -23 -76.5 -53.5t-105.5 -93.5z" />
<glyph unicode="3" horiz-adv-x="1075" d="M141 37v151q49 -23 83 -37t73 -24q78 -23 176 -23q133 0 219 76q84 78 84 197q0 129 -80 203q-41 37 -99 58t-136 21h-45v150h37q125 0 219 72q88 70 88 172q0 96 -80 168q-84 72 -211 71q-102 0 -176 -35q-39 -18 -68.5 -34.5t-70.5 -44.5v159q23 18 51 33.5t67 32.5 q88 39 211 39q188 0 308 -107q125 -106 124 -276q0 -104 -63 -199q-53 -76 -158 -119q100 -43 160 -116q78 -101 78 -232q0 -199 -125 -317q-127 -121 -324 -121q-51 0 -99 7t-95 20q-45 12 -80 24t-68 31z" />
<glyph unicode="4" horiz-adv-x="1075" d="M37 512v72l637 856h182l-559 -791h379v312h155v-312h193v-135h-193v-541h-155v539h-639z" />
<glyph unicode="5" horiz-adv-x="1075" d="M100 59v185q51 -35 89 -55.5t85 -43.5q94 -41 191 -41q137 0 229 92.5t92 233.5q0 147 -96 234q-96 84 -266 84q-25 0 -47.5 -1.5t-45 -5.5t-47 -10t-69.5 -20v712h645v-147h-495v-389l92 4q111 6 196.5 -27t153.5 -96q133 -125 133 -334q0 -211 -131 -344 q-133 -135 -338 -135q-119 0 -217 35q-47 16 -84 33.5t-70 35.5z" />
<glyph unicode="6" horiz-adv-x="1075" d="M113 477q0 303 184 553q90 123 194.5 225.5t233.5 194.5l94 -113q-137 -96 -236.5 -193t-172.5 -206q-76 -109 -109 -238q51 33 117 56q68 27 145 26q184 0 305 -116q117 -118 117 -306q0 -176 -123 -288q-123 -117 -299 -117q-190 0 -319 135q-131 137 -131 387z M264 463q0 -172 86 -264q88 -94 207 -95q117 0 195 72q77 69 77 180q0 121 -75 197q-80 80 -199 80q-111 0 -190 -49q-66 -39 -99 -72q-2 -10 -2 -23v-26z" />
<glyph unicode="7" horiz-adv-x="1075" d="M51 1274v149h977l-666 -1474l-135 59l572 1266h-748z" />
<glyph unicode="8" horiz-adv-x="1075" d="M115 379q0 63 14 118.5t47 102.5q49 76 131 127q-84 66 -121 135q-43 86 -43 176q0 168 115 287q121 117 289 117q158 0 272 -119q115 -121 115 -279q0 -94 -39 -172q-20 -39 -50 -74.5t-71 -70.5q72 -45 125 -123q64 -98 64 -221q0 -182 -123 -305t-303 -123 q-172 0 -299 123q-123 125 -123 301zM270 377q0 -117 76 -193q80 -80 195 -80t188 80q78 78 78 195q0 113 -78 190q-78 80 -188 80q-117 0 -195 -78q-76 -76 -76 -194zM299 1032q0 -96 70 -164q72 -72 170 -71q100 0 168 71q71 68 71 170q0 113 -67 181q-68 72 -172 71 q-106 0 -174 -71q-66 -70 -66 -187z" />
<glyph unicode="9" horiz-adv-x="1075" d="M82 1024q0 182 119 299q119 119 299 119q199 0 329 -135q129 -138 129 -398q0 -242 -137 -473q-72 -121 -190.5 -240.5t-298.5 -248.5l-88 116q133 92 230 184.5t175 196.5q82 111 119 256q-12 -10 -30.5 -21t-37.5 -15q-47 -27 -97 -36.5t-103 -9.5q-178 0 -297 117 q-121 115 -121 289zM238 1024q0 -104 77 -178q78 -78 189 -78q106 0 190 47q70 39 105 74v33q0 100 -20.5 169.5t-59.5 112.5q-78 88 -215 88q-115 0 -189 -78q-78 -74 -77 -190z" />
<glyph unicode=":" horiz-adv-x="380" d="M98 -27v254h183v-254h-183zM98 694v254h183v-252z" />
<glyph unicode=";" horiz-adv-x="380" d="M82 -160q8 10 15 17.5t12 13.5q6 4 14 13.5t10 15.5q8 27 12 73h-43v252h185v-190q0 -88 -39 -166q-12 -29 -32.5 -50.5t-43.5 -41.5q-12 -10 -29.5 -23.5t-60.5 -44.5v131zM102 694v254h183v-252z" />
<glyph unicode="&#x3c;" horiz-adv-x="1419" d="M147 659v119l1125 473v-155l-910 -377l910 -377v-156z" />
<glyph unicode="=" horiz-adv-x="1419" d="M147 399v144h1125v-144h-1125zM147 895v143h1125v-141z" />
<glyph unicode="&#x3e;" horiz-adv-x="1419" d="M147 186v156l908 377l-908 377v155l1125 -473v-119z" />
<glyph unicode="?" d="M-6 1327q57 45 78.5 55.5t52.5 25.5t41 19q45 16 94 17q414 28 453 -314q12 -168 -92 -309q-90 -84 -201 -112q-2 -254 -6 -396h-113q-8 205 0 506q137 0 235.5 106.5t24.5 282.5q-123 135 -303 97q-12 0 -33.5 -9.5t-45 -20.5t-45 -23.5t-83.5 -55.5zM264 -27v252h185 v-252h-185z" />
<glyph unicode="@" horiz-adv-x="1720" d="M197 551q0 272 194.5 479t474.5 207q266 0 438.5 -172t172.5 -406q-29 -481 -320 -542q-70 0 -102 96q-20 -20 -102.5 -58t-217.5 -38q-115 0 -219 96q-236 299 -51 631q115 156 307 157q197 -4 283 -110v80h135v-699q25 4 86 84q100 127 100 308q0 90 -32.5 165.5 t-92.5 141.5q-154 164 -381 164q-233 0 -401 -172q-168 -170 -168 -420q0 -258 174 -420q178 -166 393 -166q178 0 322 72q72 37 122 77.5t85 92.5h119q-43 -80 -102.5 -136.5t-145.5 -103.5q-176 -104 -387 -104q-303 0 -494 211q-190 205 -190 485zM516 584 q-6 -172 105 -291q57 -59 116 -60q238 0 320 136q-4 5 -2 241l-2 148q-74 143 -289 137q-115 0 -195 -123q-45 -96 -53 -188z" />
<glyph unicode="A" horiz-adv-x="1433" d="M2 -27l670 1461h92l666 -1461h-166l-222 486h-649l-221 -486h-170zM457 600h520l-260 569z" />
<glyph unicode="B" horiz-adv-x="1142" d="M137 -27v1450h328q221 0 348 -100q131 -106 131 -291q0 -88 -41 -164q-41 -78 -127 -133q115 -33 189 -102q100 -98 100 -254q0 -193 -135 -299q-133 -106 -361 -107h-432zM297 115h252q164 0 260 67q90 66 90 187q0 135 -94 198q-49 33 -121 50.5t-170 17.5h-217v-520z M297 774h137q168 0 256 64q86 63 86 184q0 133 -84 195q-87 65 -259 65h-5h-131v-508z" />
<glyph unicode="C" horiz-adv-x="1456" d="M96 698q0 319 223 531q221 213 558 213q115 0 243 -33q68 -16 128.5 -38.5t123.5 -55.5v-182q-78 47 -139.5 72.5t-124.5 45.5q-117 39 -250 39q-129 0 -233.5 -43t-190.5 -127q-170 -170 -170 -422q0 -264 166 -426q170 -166 434 -166q147 0 269 46q63 23 122.5 50 t133.5 68v-170q-59 -35 -121 -59.5t-127 -44.5q-139 -41 -258 -41q-342 0 -564 209q-223 209 -223 534z" />
<glyph unicode="D" horiz-adv-x="1591" d="M160 -27v1450h522q356 0 567 -194q211 -197 211 -533q0 -317 -202.5 -520t-559.5 -203h-538zM319 115h349q283 0 454 159q170 158 170 422q0 262 -168 424t-450 162h-355v-1167z" />
<glyph unicode="E" horiz-adv-x="1054" d="M137 -27v1450h815v-141h-655v-508h451v-141h-451v-516h670v-144h-830z" />
<glyph unicode="F" horiz-adv-x="942" d="M121 -27v1450h774v-141h-614v-479h411v-141h-411v-689h-160z" />
<glyph unicode="G" horiz-adv-x="1546" d="M117 702q0 313 219 527q223 213 547 213q82 0 156.5 -11.5t144 -34t121 -42t92.5 -43.5v-183q-84 49 -145.5 77t-123 46.5t-123 28.5t-122.5 10q-254 0 -428 -168q-170 -166 -170 -422q0 -270 172 -430q88 -80 201.5 -122t259.5 -42q117 0 208 27q45 12 80 24.5t58 26.5 v334h-295v144h452v-578q-59 -31 -117.5 -53.5t-124 -39t-135 -26.5t-141.5 -10q-336 0 -561 213q-225 215 -225 534z" />
<glyph unicode="H" horiz-adv-x="1546" d="M174 -27v1450h160v-647h878v647h160v-1450h-160v664h-878v-664h-160z" />
<glyph unicode="I" horiz-adv-x="446" d="M145 -27v1450h158v-1450h-158z" />
<glyph unicode="J" horiz-adv-x="446" d="M-121 -272l96 -11q82 0 123 68q23 39 35 94t12 129v1415h160v-1437q0 -102 -20.5 -181t-67.5 -133q-45 -51 -103 -80q-50 -24 -111 -24h-17l-90 4z" />
<glyph unicode="K" horiz-adv-x="1159" d="M119 -27v1450h160v-659l632 659h207l-690 -723l758 -727h-213l-694 668v-668h-160z" />
<glyph unicode="L" horiz-adv-x="1007" d="M119 -27v1450h160v-1306h690v-144h-850z" />
<glyph unicode="M" horiz-adv-x="1679" d="M174 -27v1450h145l521 -635l518 635h147v-1450h-159v1198l-506 -626l-506 626v-1198h-160z" />
<glyph unicode="N" horiz-adv-x="1658" d="M174 -27v1450h129q139 -166 270.5 -319.5t266.5 -302.5q123 -135 243.5 -274.5t243.5 -284.5v1181h160v-1450h-131l-1022 1180v-1180h-160z" />
<glyph unicode="O" horiz-adv-x="1769" d="M121 698q0 317 219 529q221 215 545 215q326 0 545 -213q221 -214 221 -531t-221 -528q-221 -215 -545 -215t-543 213q-111 106 -166 239.5t-55 290.5zM289 698q0 -246 172 -417q174 -174 424 -175q250 0 422 175q176 175 176 417t-176 418q-172 174 -422 174 q-248 0 -422 -174t-174 -418z" />
<glyph unicode="P" horiz-adv-x="1097" d="M131 -27v1450h422q219 0 344 -100q125 -104 125 -299q0 -190 -129 -295q-127 -100 -350 -100h-252v-656h-160zM291 768h244q156 0 239 68q82 63 82 190q0 119 -80 184q-84 72 -229 72h-256v-514z" />
<glyph unicode="Q" horiz-adv-x="1769" d="M121 698q0 317 219 529q221 215 545 215q326 0 545 -213q221 -216 221 -531q0 -158 -55.5 -291t-165.5 -239q-166 -160 -400 -197q35 -23 71 -41t77 -34q33 -14 76.5 -23.5t86.5 -17t76 -10.5t41 -5l12 -159q-66 0 -141.5 17t-175.5 52q-193 66 -356 211 q-279 31 -457 207q-219 213 -219 530zM289 698q0 -246 172 -417q174 -174 424 -175q250 0 422 175q176 175 176 417t-176 418q-172 174 -422 174q-248 0 -422 -174t-174 -418z" />
<glyph unicode="R" horiz-adv-x="1232" d="M135 -27v1450h379q115 0 205 -23.5t155 -74.5q133 -102 134 -293q0 -143 -86 -235q-72 -74 -156 -107q23 -16 45.5 -40.5t46.5 -59.5q33 -45 61.5 -88t57.5 -86l289 -443h-189l-254 396q-37 59 -71.5 109t-71.5 91q-33 35 -81 55.5t-116 20.5h-188v-672h-160zM295 784 h207q164 0 252 66q86 61 86 184q0 121 -84 180q-90 68 -244 68h-217v-498z" />
<glyph unicode="S" horiz-adv-x="1007" d="M90 1051q0 160 125 274q125 117 299 117q123 0 219 -37q90 -35 131 -64l4 -178q-53 31 -91 50.5t-79 39.5q-78 37 -172 37q-59 0 -105 -17.5t-85 -51.5q-78 -72 -78 -166q0 -100 59 -154q66 -55 222 -113q106 -39 182 -80.5t117 -89.5q84 -92 84 -264q0 -164 -125 -280 q-125 -119 -295 -119q-127 0 -232 49q-51 23 -91 43.5t-70 44.5v191q82 -61 132 -92t91 -50q80 -35 151 -35q115 0 195 74q78 72 78 180q0 113 -72 172q-82 66 -246 123q-88 29 -153.5 67t-106.5 79q-88 88 -88 250z" />
<glyph unicode="T" horiz-adv-x="1232" d="M12 1280v143h1209v-141h-525v-1309h-159v1307h-525z" />
<glyph unicode="U" horiz-adv-x="1501" d="M141 596v827h160v-819q0 -231 121 -364q123 -133 332 -134q205 0 325 138q59 70 91 161t32 209v809h160v-817q0 -283 -170 -465q-168 -186 -440 -186q-268 0 -441 178q-170 178 -170 463z" />
<glyph unicode="V" horiz-adv-x="1277" d="M-2 1423h164l477 -1142l475 1142h168l-610 -1464h-66z" />
<glyph unicode="W" horiz-adv-x="2217" d="M14 1423h166l445 -1116l452 1116h66l450 -1116l447 1116h162l-578 -1464h-61l-453 1137l-451 -1137h-63z" />
<glyph unicode="X" horiz-adv-x="1519" d="M-2 -27l655 742l-622 708h209l520 -589l518 589h209l-623 -708l660 -742h-211l-553 627l-553 -627h-209z" />
<glyph unicode="Y" horiz-adv-x="1308" d="M6 1423h197l456 -540l453 540h197l-572 -684v-766h-159v766z" />
<glyph unicode="Z" horiz-adv-x="1366" d="M31 37l1022 1243h-971v143h1214l19 -71l-1022 -1235h1026v-144h-1268z" />
<glyph unicode="[" horiz-adv-x="649" d="M100 -477v1900h514v-147h-364v-1604h364v-149h-514z" />
<glyph unicode="\" horiz-adv-x="604" d="M2 1442h148l464 -1487h-149z" />
<glyph unicode="]" horiz-adv-x="649" d="M37 -330h364v1604h-364v149h514v-1900h-514v147z" />
<glyph unicode="^" horiz-adv-x="1419" d="M225 879l465 557h37l469 -557l-102 -93l-385 459l-381 -459z" />
<glyph unicode="_" horiz-adv-x="1075" d="M-12 -418h1102v-153h-1102v153z" />
<glyph unicode="`" d="M117 1413h241l246 -371l-123 -2z" />
<glyph unicode="a" horiz-adv-x="1097" d="M90 434q0 231 135 379q141 152 355 152q61 0 125 -23q68 -23 126 -55l48 -21l98 -51l2 -846h-150v54q-25 -10 -51 -23.5t-53 -22.5q-77 -22 -157 -22h-7q-207 0 -338 135q-133 135 -133 344zM246 436q0 -156 90 -246q47 -47 105.5 -70.5t136.5 -23.5q92 0 153 25 q29 10 53.5 27.5t46.5 29.5v557q-14 10 -34.5 25.5t-48.5 27.5q-68 29 -146 29q-156 0 -254 -108q-102 -106 -102 -273z" />
<glyph unicode="b" horiz-adv-x="1097" d="M115 1423h151v-581q29 29 58.5 49t60.5 35q45 18 89 28.5t91 10.5q201 0 320 -134q61 -66 91 -154t30 -194q0 -229 -148 -381q-147 -147 -401 -147q-90 0 -170 20q-43 10 -83 23.5t-85 36.5zM266 139q14 -8 64 -20q61 -16 141 -17q162 0 270 109q111 106 111 268 q0 154 -84 254q-80 98 -205 98q-102 0 -182 -57q-74 -55 -115 -102v-533z" />
<glyph unicode="c" horiz-adv-x="897" d="M76 459q0 209 127 354q133 152 348 152q76 0 133 -15q31 -6 61.5 -15t71.5 -24v-168q-47 23 -76.5 33t-58.5 21q-57 20 -129 20q-145 0 -231 -98q-90 -102 -91 -260q0 -164 91 -260q43 -47 103 -72t140 -25q74 0 135 19q31 10 61 20.5t73 28.5v-160q-29 -10 -54.5 -17 t-60.5 -18q-39 -10 -78 -15t-80 -5q-225 0 -356 137q-129 137 -129 367z" />
<glyph unicode="d" horiz-adv-x="1097" d="M94 459q0 223 142 364q70 72 161.5 107t202.5 35q66 0 127 -19q31 -10 57.5 -19t49.5 -22v518h149v-1253q4 -6 -78 -84q-20 -20 -57 -45q-72 -41 -117 -57q-16 -6 -65 -23q-39 -6 -78 -6q-209 0 -350 145q-143 145 -144 359zM250 459q0 -152 100 -252q104 -104 258 -105 q49 0 87 8.5t67 22.5q25 14 42 29.5t27 23.5v553q-16 12 -38.5 23.5t-51.5 25.5q-63 29 -145 29q-154 0 -248 -100q-98 -98 -98 -258z" />
<glyph unicode="e" horiz-adv-x="1030" d="M78 473q0 207 125 346q127 145 323 146q190 0 314 -136q59 -66 90 -152.5t31 -207.5h-730v-37q6 -133 101 -227q51 -49 112.5 -76t139.5 -27q104 0 188 48q45 25 82 51t88 73v-182q-35 -27 -70.5 -49.5t-78.5 -40.5q-100 -47 -218 -47q-217 0 -358 145q-139 150 -139 373 zM254 590h526v-2q-10 49 -28.5 92t-46.5 72q-31 31 -74 48t-103 17q-135 0 -215 -100q-18 -23 -33.5 -57.5t-25.5 -69.5z" />
<glyph unicode="f" horiz-adv-x="516" d="M-43 813v131h170v127q0 160 96 266q100 104 250 105q33 0 60.5 -5t54.5 -14q29 -10 46 -16t32 -16v-142q-31 10 -50.5 15.5t-42.5 13.5q-53 16 -106 16q-94 0 -141 -59q-23 -29 -36.5 -76t-13.5 -119v-94h179v-131h-179v-842h-149v840h-170z" />
<glyph unicode="g" horiz-adv-x="1097" d="M90 434q0 236 135 379q139 152 355 152h9q59 0 116 -23q70 -14 196 -94q43 -31 78 -68v-966l2 -2q0 -2 -5 -30t-25.5 -72t-62.5 -85t-116 -70.5t-184 -29.5q-59 0 -123 10t-113 51t-86 99.5t-67 150.5l153 4q37 -78 92.5 -124t143.5 -46q113 0 177 37t64 84v221 q-25 -10 -51 -18t-53 -17q-81 -22 -159 -22h-7q-203 0 -338 135q-131 137 -131 344zM246 436q0 -156 90 -246q47 -47 105.5 -70.5t136.5 -23.5q92 0 153 25q29 10 53.5 22.5t46.5 24.5v567q-14 10 -34.5 25.5t-48.5 27.5q-33 14 -69 21.5t-79 7.5q-152 0 -254 -108 q-100 -106 -100 -273z" />
<glyph unicode="h" horiz-adv-x="1054" d="M127 -27v1450h149v-600q47 66 101 97q80 45 174 45q170 0 274 -111q53 -55 78 -131t25 -168v-582h-150v551q0 72 -15 127.5t-44 89.5q-57 76 -168 76q-102 0 -166 -53q-33 -27 -59.5 -57.5t-49.5 -65.5v-668h-149z" />
<glyph unicode="i" horiz-adv-x="403" d="M127 -27v973h149v-973h-149zM127 1202v221h149v-219z" />
<glyph unicode="j" horiz-adv-x="403" d="M-76 -362h43q76 0 119 55q43 51 43 211v1042h150v-1012q0 -121 -23 -205.5t-70 -131.5q-47 -45 -99 -70t-120 -25zM129 1202v221h150v-219z" />
<glyph unicode="k" horiz-adv-x="995" d="M139 -27v1450h150v-940v-510h-150zM240 483l536 463h207l-532 -463l612 -510h-213z" />
<glyph unicode="l" horiz-adv-x="403" d="M127 -27v1450h149v-1450h-149z" />
<glyph unicode="m" horiz-adv-x="1658" d="M135 641q14 100 80 170q100 137 340 154h25q41 0 81.5 -13.5t79.5 -36.5q66 -45 117 -145q18 29 44 57.5t54 57.5q86 80 215 80h25q143 0 236 -117q86 -117 86 -293v-582h-150v551q0 145 -57 217q-59 76 -162 76q-78 0 -139 -63q-61 -61 -107 -136v-645h-149v551 q0 143 -54 219q-55 74 -157 74q-94 0 -151.5 -51t-104.5 -127v-666h-150q-2 0 -2 668z" />
<glyph unicode="n" horiz-adv-x="1054" d="M125 612q-1 3 -1 7q0 38 50 153q55 61 51 66q102 117 326 127q170 0 274 -111q53 -55 78 -131t25 -168v-582h-150v551q0 72 -15 127.5t-44 89.5q-57 76 -168 76q-23 4 -44 4q-70 0 -120 -41q-86 -55 -111 -139v-668h-149z" />
<glyph unicode="o" horiz-adv-x="1165" d="M88 459q0 213 141 360q139 145 355 146q211 0 352 -146q141 -147 141 -360q0 -209 -139 -359q-143 -145 -354 -145q-213 0 -353 145q-143 150 -143 359zM244 459q0 -150 100 -250q100 -106 240 -107q137 0 239 105q99 105 99 252q0 150 -99 252q-100 106 -239 106 q-141 0 -240 -104q-100 -102 -100 -254z" />
<glyph unicode="p" horiz-adv-x="1097" d="M160 -498v1307l151 90q23 10 52.5 22.5t64.5 22.5q31 10 61.5 15.5t59.5 5.5q215 0 354 -141.5t139 -362.5q0 -203 -139 -352q-139 -154 -334 -154q-86 0 -155 18q-27 6 -52.5 16.5t-52.5 22.5v-510h-149zM309 162q16 -10 38 -17.5t46 -17.5q31 -10 67 -17.5t77 -7.5 q158 0 249 101q97 100 97 256t-103 254q-102 104 -256 104q-43 0 -76.5 -12t-62.5 -23q-25 -10 -44 -17t-32 -15v-588z" />
<glyph unicode="q" horiz-adv-x="1097" d="M90 434q0 231 135 379q141 152 355 152q61 0 125 -23q68 -23 126 -55l146 -76l2 -1309h-150v510q-25 -10 -51 -18t-53 -17q-77 -22 -157 -22h-7q-207 0 -338 135q-133 135 -133 344zM246 436q0 -156 90 -246q47 -47 105.5 -70.5t136.5 -23.5q92 0 153 25q29 10 53.5 22.5 t46.5 24.5v567q-14 10 -34.5 25.5t-48.5 27.5q-68 29 -146 29q-156 0 -254 -108q-102 -106 -102 -273z" />
<glyph unicode="r" horiz-adv-x="759" d="M113 -27v658q156 168 189.5 210t76.5 66q47 41 94 49.5t90 8.5q41 0 77 -14.5t71 -39.5q63 -45 94 -82l-84 -131q-41 39 -66.5 59.5t-48.5 33.5q-38 26 -69 26h-2q-72 0 -154 -88q-78 -90 -119 -156v-600h-149z" />
<glyph unicode="s" horiz-adv-x="761" d="M72 51v160q53 -35 90 -52.5t74 -29.5q74 -27 141 -27q80 0 131 39q47 35 47 99q0 43 -35 77q-41 39 -188 93q-59 23 -105.5 48t-79.5 58q-69 67 -69 171q0 122 98 200q47 37 100.5 57.5t114.5 20.5q90 0 166 -29q70 -27 115 -66v-168q-53 41 -86 60.5t-64 34.5 q-61 26 -119 26h-4q-45 0 -76.5 -10t-54.5 -29q-45 -43 -45 -92q0 -53 45 -86q27 -18 62 -35.5t82 -33.5q125 -43 202 -107q86 -67 86 -192q0 -117 -94 -201q-92 -84 -229 -84q-109 0 -184 35q-39 16 -67 31.5t-54 31.5z" />
<glyph unicode="t" horiz-adv-x="649" d="M-43 813v131h248v250l84 57h65v-305h258v-131h-258v-561q0 -55 5.5 -85t15.5 -40q8 -10 30.5 -18.5t65.5 -8.5q33 0 70 13q20 6 43.5 16t74.5 33v-154q-39 -16 -64.5 -25.5t-48 -15.5t-48 -10t-54.5 -4q-111 0 -174 61q-35 33 -50 76t-15 94v627h-248z" />
<glyph unicode="u" horiz-adv-x="1054" d="M127 352v594h149v-573q0 -131 70 -204t176 -73q125 2 187 56q69 69 69 124v7v663h150l4 -610q-12 -154 -45 -197q-57 -90 -137 -133q-80 -45 -234 -51q-184 0 -286.5 102.5t-102.5 294.5z" />
<glyph unicode="v" horiz-adv-x="917" d="M-16 946h155l330 -737l315 737h152l-418 -991h-94z" />
<glyph unicode="w" horiz-adv-x="1521" d="M-2 946h152l294 -706l273 706h82l272 -708l301 708h152l-418 -991h-82l-264 702l-266 -702h-80z" />
<glyph unicode="x" horiz-adv-x="1103" d="M14 946h197l350 -371l348 371h199l-446 -475l442 -498h-195l-348 392l-350 -392h-195l443 498z" />
<glyph unicode="y" horiz-adv-x="935" d="M6 946h164l315 -612l299 612h158l-711 -1444h-157l334 674z" />
<glyph unicode="z" horiz-adv-x="851" d="M12 35l586 768h-549v143h772l17 -63l-582 -766h580v-144h-803z" />
<glyph unicode="{" d="M92 389v168q59 10 94 26.5t54 43.5q43 59 43 166v297q0 137 61 231q35 53 94.5 77.5t136.5 24.5h54v-161h-60q-55 0 -88 -33q-14 -14 -23 -44t-9 -83v-258q0 -168 -60 -264q-45 -70 -113 -107q66 -33 113 -104q31 -49 45.5 -116t14.5 -151v-258q0 -53 8 -82.5t22 -42.5 q37 -33 90 -32h60v-164h-54q-78 0 -136 24.5t-93 77.5q-63 94 -63 232v297q0 106 -43 165q-18 27 -53 43.5t-95 26.5z" />
<glyph unicode="|" horiz-adv-x="477" d="M164 -604v2099h149v-2099h-149z" />
<glyph unicode="}" d="M88 -315h57q55 0 88 32q16 14 25.5 44t9.5 83v258q0 84 14.5 150.5t45.5 114.5q45 74 112 106q-68 33 -110 105q-33 49 -47.5 115.5t-14.5 150.5v258q0 53 -9 82.5t-23 42.5q-33 33 -91 33h-57v163h51q162 0 232 -102q63 -98 63 -231v-297q0 -109 41 -166 q20 -27 55 -43.5t97 -26.5v-168q-61 -10 -95 -26.5t-55 -43.5q-20 -29 -31.5 -69.5t-11.5 -95.5v-297q0 -66 -16.5 -125.5t-44.5 -106.5q-35 -53 -95.5 -77.5t-138.5 -24.5h-51v162z" />
<glyph unicode="~" horiz-adv-x="1419" d="M145 541v178q16 12 42 29.5t67 44.5q45 29 93 45t104 16q104 0 276 -84q172 -80 240 -80q57 0 131 45q37 23 75.5 48.5t102.5 68.5l-4 -174q-16 -12 -42 -29.5t-67 -44.5q-45 -29 -93 -45t-101 -16q-104 0 -277 84q-172 80 -239 80q-59 0 -140 -45q-39 -23 -75.5 -48.5 t-92.5 -72.5z" />
<glyph unicode="&#xa1;" horiz-adv-x="380" d="M96 -479l37 1057h113l37 -1057h-187zM98 719v252h185v-250z" />
<glyph unicode="&#xa2;" horiz-adv-x="897" d="M59 459q0 213 127 354q129 150 349 150h32q16 0 31 -2l131 372h145l-143 -401q16 -4 32.5 -9t37.5 -12v-168q-63 31 -111 45q-2 0 -3 1.5t-3 1.5l-240 -674q20 -6 46 -10.5t59 -4.5q74 0 135 19q31 10 59.5 20.5t73.5 28.5v-160q-29 -10 -54.5 -17t-62 -17.5t-75.5 -15.5 t-80 -5q-94 0 -150 20l-137 -389h-145l155 443q-25 16 -44 31.5t-36 31.5q-66 70 -97.5 162t-31.5 205zM215 459q0 -147 70 -238q14 -18 39 -39l221 633h-19q-8 0 -18 -2q-125 -6 -205 -94q-88 -104 -88 -260z" />
<glyph unicode="&#xa3;" horiz-adv-x="1187" d="M147 -41v90q14 12 35 85t58 210q57 217 77 258h-170v148h203l68 204q29 80 69.5 161t106.5 161q135 166 334 166l108 -23l78 -155l-106 24l-52 4q-68 4 -125 -22.5t-106 -79.5t-88 -119.5t-68 -146.5l-61 -172h207v-148h-252l-123 -467l174 10q41 4 87 -1t95 -13 q23 -4 43.5 -7t36.5 -7q41 -6 66.5 -10.5t42.5 -4.5q29 0 51 4.5t41 10.5q23 8 51.5 19.5t81.5 39.5v-168q-29 -12 -50.5 -21t-49.5 -18q-61 -16 -127 -16q-23 0 -66 6t-108 16q-61 10 -115.5 16.5t-101.5 6.5t-90.5 -3t-79.5 -7q-39 -6 -79 -13.5t-96 -17.5z" />
<glyph unicode="&#xa4;" horiz-adv-x="1456" d="M27 430v133h114q-4 33 -7 67t-3 68q0 92 23 183h-127v133h174q27 59 65.5 113.5t87.5 101.5q225 213 559 213q115 0 244 -33q68 -16 128.5 -38.5t121.5 -55.5v-182q-78 47 -139.5 72.5t-122.5 45.5q-119 39 -250 39q-129 0 -233.5 -43t-190.5 -127q-27 -25 -47.5 -50.5 t-36.5 -53.5h969v-133h-1030q-27 -82 -27 -185q0 -35 4 -68.5t8 -64.5h1045v-133h-1000q39 -92 111 -160q166 -166 434 -166q145 0 268 46q63 23 122 50t132 68v-170q-59 -35 -119.5 -59.5t-125.5 -44.5q-141 -41 -258 -41q-340 0 -566 209q-121 113 -178 266h-149z" />
<glyph unicode="&#xa5;" horiz-adv-x="1196" d="M-12 1493h207l409 -700l402 700h204l-434 -725h348v-147h-422l-12 -9v-96h434v-147h-434v-396h-182v394h-442v147h389l53 72l-4 32h-438v148h358z" />
<glyph unicode="&#xa6;" horiz-adv-x="477" d="M164 385h149v-924h-149v924zM164 639v924h149v-922z" />
<glyph unicode="&#xa7;" horiz-adv-x="851" d="M47 580q0 82 49 172q45 80 117 147q-37 47 -63 105q-31 63 -31 139q0 141 92 221q96 78 233 78q92 0 179 -58q45 -29 73.5 -80t44.5 -141h-155q-10 47 -24.5 70.5t-33.5 38.5q-43 31 -94 31q-55 0 -112 -41q-53 -39 -54 -113q0 -57 35 -115q39 -66 109 -129l190 -170 q47 -41 84 -85t64 -89q55 -92 55 -196q0 -76 -45 -160q-23 -45 -54.5 -85t-66.5 -75q43 -51 66 -104q14 -33 22 -68t8 -72q0 -141 -94 -221q-94 -78 -233 -78q-94 0 -181 58q-45 29 -72.5 81t-43.5 140h155q10 -47 23.5 -70.5t32.5 -38.5q43 -31 94 -30q61 0 116 41 q27 20 40.5 45.5t13.5 66.5q0 49 -39 114.5t-109 129.5l-188 170q-94 82 -150 174q-53 94 -53 197zM201 584q0 -78 35 -127q18 -29 34.5 -51.5t32.5 -38.5l238 -217q63 61 86 108q24 56 24 107q0 74 -35 127q-20 29 -35.5 51t-31.5 39l-240 217q-33 -31 -53 -58.5t-33 -50.5 q-23 -51 -22 -106z" />
<glyph unicode="&#xa8;" d="M123 1116v193h190v-193h-190zM403 1116v193h191v-191z" />
<glyph unicode="&#xa9;" horiz-adv-x="1720" d="M72 727q0 328 229 559q236 231 557 232q328 0 559 -232q232 -235 232 -557q0 -324 -232 -559q-231 -231 -557 -231q-324 0 -559 231q-229 231 -229 557zM219 729q0 -268 187 -453q190 -190 452 -190q268 0 453 188q190 191 190 453q0 268 -188 453q-188 190 -453 190 q-264 0 -452.5 -188.5t-188.5 -452.5zM455 733q0 184 114 309q119 129 310 129q117 0 204 -69q45 -35 79 -81t67 -118l-148 -39q-16 37 -34.5 69t-42.5 54q-53 49 -130 49q-125 0 -192 -84q-70 -84 -70 -209q0 -145 68 -243q63 -94 184 -94q82 0 137 49q29 27 51.5 63.5 t41.5 99.5l137 -49q-23 -82 -57.5 -135t-81.5 -92q-96 -78 -222 -78q-176 0 -297 133q-119 131 -118 336z" />
<glyph unicode="&#xaa;" horiz-adv-x="604" d="M27 969q0 82 51 131q49 49 115 71q23 6 42 11.5t41 9.5q37 8 105 12v45q0 29 -7 45.5t-18 24.5q-29 23 -84 22q-18 0 -34.5 -4t-32.5 -8q-33 -10 -72 -35q-23 -12 -40 -24.5t-34 -24.5v119q14 14 35 25.5t53 25.5q66 27 132 27q98 0 155 -45q61 -49 62 -133v-312l6 -22 q16 6 47 26q12 8 23.5 15.5t25.5 15.5v-108q-14 -10 -22.5 -16.5t-18.5 -12.5l-12 -8t-15 -8q-20 -10 -40.5 -18.5t-40.5 -8.5q-16 0 -35 14q-16 12 -23 43q-25 -18 -59 -35q-29 -10 -54.5 -17t-54.5 -7q-41 0 -75.5 12t-63.5 35q-57 51 -57 117zM141 973q0 -29 21 -43 q14 -10 31.5 -17.5t42.5 -7.5q47 0 86 23q16 10 31.5 19t27.5 20v137q-8 0 -17.5 1t-19.5 -1q-16 -2 -38.5 -6t-51.5 -15q-45 -12 -84 -47q-29 -23 -29 -63z" />
<glyph unicode="&#xab;" horiz-adv-x="1075" d="M20 473l406 488h190l-403 -488l410 -487h-193zM455 473l405 488h191l-404 -488l410 -487h-193z" />
<glyph unicode="&#xac;" horiz-adv-x="1376" d="M168 0v1128h100l420 -512l418 512h98v-1128h-102v973l-406 -498l4 -565h621l-76 -74l-594 -2l285 -295l-59 -57l-594 618l57 56l283 -291v563l53 51l-404 494v-973h-104zM463 1004q27 10 47 19t38.5 18.5t41 21.5t57.5 31q-35 16 -57.5 28.5t-41 21.5t-39 18t-46.5 20 l37 69q29 -23 47 -35t35 -22q16 -12 37.5 -25.5t52.5 -31.5q-2 37 -2 61q0 27 -1 48.5t-3 43t-7 51.5h76q-4 -31 -5 -52t-3 -42.5t-3 -47t-3 -62.5q31 18 52.5 31.5t37.5 25.5q16 10 34.5 22.5t47.5 34.5l39 -69q-29 -10 -48.5 -19.5t-39 -18.5t-43 -21.5t-56.5 -28.5 q33 -18 56.5 -30.5t43 -22t39 -18.5t48.5 -19l-39 -72q-29 23 -46.5 35t-35.5 24q-16 10 -37.5 23.5t-52.5 34.5q2 -39 3 -65t3 -47.5t3 -42t5 -50.5h-76q4 31 6.5 51t3.5 41.5t1 46.5q0 27 2 66q-31 -20 -52.5 -34t-37.5 -24q-18 -12 -36 -24.5t-46 -34.5z" />
<glyph unicode="&#xad;" horiz-adv-x="673" d="M68 492v126h536v-126h-536z" />
<glyph unicode="&#xae;" horiz-adv-x="1720" d="M72 727q0 328 229 559q236 231 557 232q328 0 559 -232q232 -235 232 -557q0 -324 -232 -559q-231 -231 -557 -231q-324 0 -559 231q-229 231 -229 557zM219 729q0 -268 187 -453q190 -190 452 -190q268 0 453 188q190 191 190 453q0 268 -188 453q-188 190 -453 190 q-264 0 -452.5 -188.5t-188.5 -452.5zM528 291v856h334q84 0 145.5 -16.5t100.5 -51.5q74 -68 74 -172q0 -80 -47 -143q-27 -31 -62 -54.5t-82 -33.5q59 -33 92 -82q23 -35 39.5 -68.5t32.5 -68.5l72 -166h-178q-45 109 -82 176.5t-66 103.5q-61 74 -172 74h-51v-354h-150z M678 774h121q72 0 113.5 9.5t62.5 25.5q41 31 41 92q0 35 -11.5 55.5t-31.5 30.5q-27 12 -64 20.5t-86 8.5h-145v-242z" />
<glyph unicode="&#xaf;" d="M59 1145v158h596v-156z" />
<glyph unicode="&#xb0;" horiz-adv-x="860" d="M119 1128q0 129 92 221.5t219 92.5q125 0 221 -92q90 -91 90 -220q0 -131 -90 -221q-96 -92 -219 -92q-129 0 -221 92t-92 219zM252 1130q0 -78 53 -126q49 -53 125 -54q74 0 127 54q51 50 51 124q0 78 -51 127q-53 53 -125 54q-78 0 -127 -54q-53 -53 -53 -125z" />
<glyph unicode="&#xb2;" horiz-adv-x="673" d="M43 1231v131q43 35 94 55q31 10 66 17.5t73 7.5q119 0 203 -66q86 -68 86 -172q0 -53 -28 -117q-12 -29 -27.5 -51t-30.5 -45q-25 -37 -48 -65.5t-46 -51.5q-23 -29 -46.5 -53t-47.5 -49q-4 -2 -10.5 -8t-8.5 -8h379v-101l-598 -2v54q47 41 84 72.5t70 60.5 q31 29 63.5 61.5t65.5 73.5q25 29 44 58.5t36 60.5q31 55 30 110q0 57 -49 94q-51 41 -127 41q-53 0 -100 -20q-23 -10 -49.5 -28.5t-77.5 -59.5z" />
<glyph unicode="&#xb3;" horiz-adv-x="673" d="M74 688v103q39 -12 62.5 -19.5t45.5 -13.5q49 -12 113 -13q84 0 135 39q49 37 49 93q0 59 -47 94q-51 39 -145 39h-39v102h33q78 0 137 37q51 31 51 78q0 23 -10 40t-37 36q-53 37 -131 36q-35 0 -61.5 -5t-47.5 -13q-25 -10 -45 -18.5t-57 -26.5v106q20 12 40.5 20.5 t43.5 18.5q29 10 62.5 15.5t74.5 5.5q123 0 201 -58q41 -29 62.5 -66.5t21.5 -86.5q0 -61 -43 -113q-25 -31 -84 -53q51 -18 84 -51q55 -55 55 -129q0 -109 -86 -176q-43 -33 -94 -49.5t-117 -16.5q-68 0 -127 14q-29 8 -52.5 14.5t-47.5 16.5z" />
<glyph unicode="&#xb4;" d="M195 1040l247 373h240l-363 -373h-124z" />
<glyph unicode="&#xb5;" horiz-adv-x="1196" d="M207 -389v1335h149v-573q0 -131 57.5 -201t166.5 -70q90 0 161 62q70 57 103 119v663h149v-973h-149v115q-41 -61 -90 -88q-80 -45 -156 -45q-72 0 -141 27q-59 25 -101 65v-436h-149z" />
<glyph unicode="&#xb6;" horiz-adv-x="1398" d="M98 1020q0 207 138 326q135 121 362 120h723v-190h-195v-1735h-182v1735h-213v-1735h-182v1034q-201 6 -320 119q-131 123 -131 326z" />
<glyph unicode="&#xb7;" horiz-adv-x="604" d="M158 582v254h182v-252z" />
<glyph unicode="&#xb8;" d="M197 -371l16 115l92 -6q29 -2 49.5 3t34.5 13q23 12 23 37q0 27 -23 39q-12 10 -35.5 13t-79.5 3l60 197h112l-24 -94q23 -4 41 -14.5t35 -28.5q45 -50 45 -113q0 -76 -66 -129q-66 -49 -162 -49z" />
<glyph unicode="&#xb9;" horiz-adv-x="673" d="M276 1434h119l2 -779l-118 -2z" />
<glyph unicode="&#xba;" horiz-adv-x="761" d="M45 1124q0 135 96 226q102 92 240 92q141 0 237 -90q97 -89 97 -228q0 -137 -97 -225q-98 -92 -237 -92q-143 0 -239.5 90t-96.5 227zM164 1124q0 -84 63 -145q63 -63 154 -64q90 0 151 62q62 59 62 147q0 84 -62 146q-63 63 -151 63q-90 0 -152 -61q-66 -61 -65 -148z " />
<glyph unicode="&#xbb;" horiz-adv-x="1075" d="M18 -14l410 487l-403 488h190l406 -488l-410 -487h-193zM453 -14l409 487l-403 488h190l406 -488l-410 -487h-192z" />
<glyph unicode="&#xbc;" horiz-adv-x="1792" d="M172 -82l1112 1524h146l-1115 -1524h-143zM367 1434h118l2 -779l-118 -2zM889 254v55l465 453h61v-412h123v-94h-123v-283h-117v281h-409zM1069 348h229v223z" />
<glyph unicode="&#xbd;" horiz-adv-x="1792" d="M145 -82l1112 1524h146l-1116 -1524h-142zM340 1434h119l2 -779l-119 -2zM1014 551v131q43 35 94 55q31 10 65.5 17.5t73.5 7.5q119 0 203 -66q86 -68 86 -172q0 -53 -29 -116q-12 -29 -27.5 -51.5t-29.5 -45.5q-23 -37 -47.5 -65.5t-46.5 -50.5q-23 -29 -46.5 -53.5 t-47.5 -49.5q-2 -2 -9.5 -8t-9.5 -8h379v-103h-598v54q47 41 84 72.5t70 60.5q31 29 63.5 61.5t67.5 73.5q23 29 42 58.5t35 60.5q31 55 31 110q0 57 -49 94q-51 41 -127 41q-53 0 -100 -20q-23 -10 -49.5 -28.5t-77.5 -59.5z" />
<glyph unicode="&#xbe;" horiz-adv-x="1792" d="M150 688v103q39 -12 62.5 -19.5t45.5 -13.5q49 -12 113 -13q84 0 135 39q49 37 49 93q0 59 -47 94q-51 39 -146 39h-38v102h32q78 0 138 37q51 31 51 78q0 23 -10.5 40t-36.5 36q-53 37 -131 36q-35 0 -61.5 -5t-47.5 -13q-25 -10 -45 -18.5t-57 -26.5v106 q20 12 40.5 20.5t43.5 18.5q29 10 62.5 15.5t74.5 5.5q123 0 201 -58q41 -29 62.5 -66.5t21.5 -86.5q0 -61 -44 -113q-25 -31 -83 -53q51 -18 83 -51q56 -55 56 -129q0 -109 -86 -176q-43 -33 -94.5 -49.5t-116.5 -16.5q-68 0 -127 14q-29 8 -52.5 14.5t-47.5 16.5zM238 -82 l1112 1524h145l-1114 -1524h-143zM967 254v55l463 453h63v-412h123v-94h-123v-283h-117v281h-409zM1147 348h229v223z" />
<glyph unicode="&#xbf;" horiz-adv-x="604" d="M47 -160q0 123 45 213q23 43 60.5 102.5t87.5 131.5q23 35 37 60.5t22 45.5q12 43 12 82q0 10 -1 20.5t-3 20.5q-4 10 -12 30.5t-27 57.5l70 62q29 -33 44 -56.5t30 -48.5q29 -61 28 -110q0 -66 -18 -121q-10 -29 -27.5 -64t-44.5 -78q-35 -55 -61.5 -103t-46.5 -89 q-39 -84 -39 -166q0 -74 37 -119q37 -49 94 -49q12 0 33.5 9.5t44 20.5t44 23.5t33.5 18.5l54 -137q-4 -2 -25.5 -12.5t-52.5 -26t-41 -19.5q-45 -16 -92 -16q-72 0 -126 23.5t-89 74.5q-37 47 -53.5 102.5t-16.5 116.5zM233 741v252h185v-250z" />
<glyph unicode="&#xc0;" horiz-adv-x="1433" d="M2 -27l670 1461h92l666 -1461h-166l-222 486h-649l-221 -486h-170zM389 1880h240l248 -371h-125zM457 600h520l-260 569z" />
<glyph unicode="&#xc1;" horiz-adv-x="1433" d="M2 -27l670 1461h92l666 -1461h-166l-222 486h-649l-221 -486h-170zM457 600h520l-260 569zM643 1507l246 373h241l-364 -373h-123z" />
<glyph unicode="&#xc2;" horiz-adv-x="1433" d="M2 -27l670 1461h92l666 -1461h-166l-222 486h-649l-221 -486h-170zM389 1468l254 390h148l256 -388l-138 -2l-192 211l-193 -211h-135zM457 600h520l-260 569z" />
<glyph unicode="&#xc3;" horiz-adv-x="1433" d="M2 -27l670 1461h92l666 -1461h-166l-222 486h-649l-221 -486h-170zM356 1542q0 63 12.5 104.5t34.5 73.5q25 37 63 53.5t85 16.5q70 0 192 -53q119 -49 158 -49q16 0 35 16q8 6 15 23.5t14 60.5h110q0 -63 -11 -104.5t-34 -73.5q-49 -70 -147 -70q-74 0 -193 53 q-121 49 -155 49q-16 0 -37 -16q-8 -6 -15.5 -22.5t-11.5 -61.5h-115zM457 600h520l-260 569z" />
<glyph unicode="&#xc4;" horiz-adv-x="1433" d="M2 -27l670 1461h92l666 -1461h-166l-222 486h-649l-221 -486h-170zM457 600h520l-260 569zM483 1563v192h191v-192h-191zM764 1563v192h190v-190z" />
<glyph unicode="&#xc6;" horiz-adv-x="1859" d="M8 -27l903 1450h871v-141h-656v-508h637v-139l-637 -2v-516h670v-144h-829v662h-371l-412 -662h-176zM688 776h279v453z" />
<glyph unicode="&#xc7;" horiz-adv-x="1456" d="M96 698q0 319 223 531q221 213 558 213q115 0 243 -33q68 -16 128.5 -38.5t123.5 -55.5v-182q-78 47 -139.5 72.5t-124.5 45.5q-117 39 -250 39q-129 0 -233.5 -43t-190.5 -127q-170 -170 -170 -422q0 -264 166 -426q170 -166 434 -166q147 0 269 46q63 23 122.5 50 t133.5 68v-170q-41 -25 -86.5 -44t-94.5 -35.5t-97 -26.5t-95 -17q-25 -4 -48.5 -8t-45.5 -6q-14 -2 -31 -17.5t-29 -15.5q43 -16 66 -51q27 -41 26 -86q0 -76 -65 -129q-66 -49 -162 -49l-119 14l19 115l90 -6q29 -2 49 3t35 13q23 12 22 37q0 27 -22 39q-12 10 -36 13 t-79 3l37 123q-236 37 -404 195q-223 209 -223 534z" />
<glyph unicode="&#xc8;" horiz-adv-x="1054" d="M137 -27v1450h815v-141h-655v-508h637v-139l-637 -2v-516h670v-144h-830zM283 1870h239l248 -371l-123 -2z" />
<glyph unicode="&#xc9;" horiz-adv-x="1054" d="M135 -27v1450h815v-141h-655v-508h637v-139l-637 -2v-516h670v-144h-830zM451 1487l245 373h242l-365 -373h-122z" />
<glyph unicode="&#xca;" horiz-adv-x="1054" d="M137 -27v1450h815v-141h-655v-508h637v-139l-637 -2v-516h670v-144h-830zM199 1489l254 389h145l258 -387l-137 -2l-193 211l-192 -211h-135z" />
<glyph unicode="&#xcb;" horiz-adv-x="1054" d="M137 -27v1450h815v-141h-655v-508h637v-139l-637 -2v-516h670v-144h-830zM293 1563v192h190v-192h-190zM573 1563v192h191v-190z" />
<glyph unicode="&#xcc;" horiz-adv-x="446" d="M-16 1860h241l248 -371l-125 -2zM147 -27v1450h158v-1450h-158z" />
<glyph unicode="&#xcd;" horiz-adv-x="446" d="M147 -27v1450h158v-1450h-158zM154 1507l247 373h242l-364 -373h-125z" />
<glyph unicode="&#xce;" horiz-adv-x="446" d="M-104 1468l256 390h145l258 -388l-137 -2l-195 211l-190 -211h-137zM143 -27v1450h158v-1450h-158z" />
<glyph unicode="&#xcf;" horiz-adv-x="446" d="M-10 1563v192h190v-192h-190zM141 -27v1450h158v-1450h-158zM270 1563v192h191v-190z" />
<glyph unicode="&#xd0;" horiz-adv-x="1591" d="M2 629v141h209v660l524 -9q178 -2 319.5 -48t245.5 -144q213 -195 213 -533q0 -160 -51 -288.5t-151 -231.5q-203 -203 -561 -203h-537v656h-211zM371 115h350q281 0 453 159q170 156 169 422h3q0 264 -170 424q-168 162 -451 162h-354v-510h454v-141h-454v-516z" />
<glyph unicode="&#xd1;" horiz-adv-x="1658" d="M174 -27v1450h129q139 -166 270.5 -319.5t266.5 -302.5q123 -135 243.5 -274.5t243.5 -284.5v1181h160v-1450h-131l-1022 1180v-1180h-160zM477 1542q0 63 11.5 104.5t33.5 73.5q25 37 63 53.5t85 16.5q74 0 192 -53q119 -49 158 -49q18 0 35 16q8 6 15 23.5t13 60.5h113 q0 -63 -12.5 -104.5t-34.5 -73.5q-49 -70 -148 -70q-70 0 -192 53q-121 49 -156 49q-16 0 -37 -16q-8 -6 -15 -22.5t-11 -61.5h-113z" />
<glyph unicode="&#xd2;" horiz-adv-x="1769" d="M121 698q0 317 219 529q221 215 545 215q326 0 545 -213q221 -214 221 -531t-221 -528q-221 -215 -545 -215t-543 213q-111 106 -166 239.5t-55 290.5zM289 698q0 -246 172 -417q174 -174 424 -175q250 0 422 175q176 175 176 417t-176 418q-172 174 -422 174 q-248 0 -422 -174t-174 -418zM580 1880h239l248 -371l-125 -2z" />
<glyph unicode="&#xd3;" horiz-adv-x="1769" d="M121 698q0 317 219 529q221 215 545 215q326 0 545 -213q221 -214 221 -531t-221 -528q-221 -215 -545 -215t-543 213q-111 106 -166 239.5t-55 290.5zM289 698q0 -246 172 -417q174 -174 424 -175q250 0 422 175q176 175 176 417t-176 418q-172 174 -422 174 q-248 0 -422 -174t-174 -418zM809 1507l248 373h239l-362 -373h-125z" />
<glyph unicode="&#xd4;" horiz-adv-x="1769" d="M121 698q0 317 219 529q221 215 545 215q326 0 545 -213q221 -214 221 -531t-221 -528q-221 -215 -545 -215t-543 213q-111 106 -166 239.5t-55 290.5zM289 698q0 -246 172 -417q174 -174 424 -175q250 0 422 175q176 175 176 417t-176 418q-172 174 -422 174 q-248 0 -422 -174t-174 -418zM553 1489l256 389h139l264 -387l-137 -2l-194 211l-191 -211h-137z" />
<glyph unicode="&#xd5;" horiz-adv-x="1769" d="M121 698q0 317 219 529q221 215 545 215q326 0 545 -213q221 -214 221 -531t-221 -528q-221 -215 -545 -215t-543 213q-111 106 -166 239.5t-55 290.5zM289 698q0 -246 172 -417q174 -174 424 -175q250 0 422 175q176 175 176 417t-176 418q-172 174 -422 174 q-248 0 -422 -174t-174 -418zM524 1542q0 63 11.5 104.5t33.5 73.5q27 37 64 53.5t84 16.5q74 0 192 -53q123 -49 158 -49q18 0 35 16q10 6 16 23.5t15 60.5h110q0 -63 -11 -104.5t-34 -73.5q-49 -70 -149 -70q-70 0 -193 53q-121 49 -156 49q-16 0 -36 -16 q-8 -6 -14.5 -22.5t-10.5 -61.5h-115z" />
<glyph unicode="&#xd6;" horiz-adv-x="1769" d="M121 698q0 317 219 529q221 215 545 215q326 0 545 -213q221 -214 221 -531t-221 -528q-221 -215 -545 -215t-543 213q-111 106 -166 239.5t-55 290.5zM289 698q0 -246 172 -417q174 -174 424 -175q250 0 422 175q176 175 176 417t-176 418q-172 174 -422 174 q-248 0 -422 -174t-174 -418zM651 1563v192h191v-192h-191zM932 1563v192h190v-190z" />
<glyph unicode="&#xd7;" horiz-adv-x="1419" d="M262 373l346 346l-346 346l100 102l347 -346l346 346l102 -102l-346 -346l346 -346l-100 -103l-346 346l-346 -346z" />
<glyph unicode="&#xd8;" horiz-adv-x="1769" d="M121 698q0 317 219 529q221 215 545 215q266 0 456 -142l127 144l119 -84l-139 -154q203 -209 203 -508q0 -317 -221 -528q-221 -215 -545 -215q-258 0 -445 131l-127 -141l-116 84l133 149l-8 8q-201 211 -201 512zM289 698q0 -231 151 -395l793 877q-147 111 -348 110 q-248 0 -422 -174t-174 -418zM549 207q143 -100 336 -101q250 0 422 175q176 175 176 417q0 223 -146 385z" />
<glyph unicode="&#xd9;" horiz-adv-x="1501" d="M141 596v827h160v-819q0 -231 121 -364q123 -133 332 -134q205 0 325 138q59 70 91 161t32 209v809h160v-817q0 -283 -170 -465q-168 -186 -440 -186q-268 0 -441 178q-170 178 -170 463zM504 1860h241l248 -371l-125 -2z" />
<glyph unicode="&#xda;" horiz-adv-x="1501" d="M141 596v827h160v-819q0 -231 121 -364q123 -133 332 -134q205 0 325 138q59 70 91 161t32 209v809h160v-817q0 -283 -170 -465q-168 -186 -440 -186q-268 0 -441 178q-170 178 -170 463zM674 1487l248 373h239l-364 -373h-123z" />
<glyph unicode="&#xdb;" horiz-adv-x="1501" d="M141 596v827h160v-819q0 -231 121 -364q123 -133 332 -134q205 0 325 138q59 70 91 161t32 209v809h160v-817q0 -283 -170 -465q-168 -186 -440 -186q-268 0 -441 178q-170 178 -170 463zM420 1468l254 390h147l258 -388l-137 -2l-194 211l-191 -211h-137z" />
<glyph unicode="&#xdc;" horiz-adv-x="1501" d="M141 596v827h160v-819q0 -231 121 -364q123 -133 332 -134q205 0 325 138q59 70 91 161t32 209v809h160v-817q0 -283 -170 -465q-168 -186 -440 -186q-268 0 -441 178q-170 178 -170 463zM516 1563v192h191v-192h-191zM797 1563v192h190v-190z" />
<glyph unicode="&#xdd;" horiz-adv-x="1253" d="M-25 1423h197l457 -540l452 538h197l-571 -682v-766h-160v766zM549 1487l248 373h239l-362 -373h-125z" />
<glyph unicode="&#xde;" horiz-adv-x="1097" d="M131 -27v1450h160v-325h248q223 0 352 -101q131 -104 131 -299q0 -190 -129 -295q-127 -100 -350 -100h-252v-330h-160zM291 444h244q156 0 239 68q82 63 82 188q0 119 -80 185q-84 72 -229 71h-256v-512z" />
<glyph unicode="&#xdf;" horiz-adv-x="1075" d="M115 -27v1014q0 229 112 342q117 113 287 113q176 0 289 -103q117 -102 117 -262q0 -76 -46 -176q-33 -78 -112 -123q82 -33 143 -110q78 -100 78 -260q0 -182 -109 -316q-113 -137 -296 -137q-23 0 -40.5 2t-33.5 6q-14 4 -28.5 7t-41.5 12v157q35 -12 50.5 -17t31.5 -9 t33.5 -7.5t36.5 -3.5q111 0 174 86q66 90 65 220q0 115 -55 198q-27 39 -78 64.5t-145 36.5v139h43q72 0 123 63.5t51 159.5q0 66 -19.5 110t-54.5 70q-76 59 -182 60q-106 0 -174 -74q-33 -35 -50.5 -111.5t-17.5 -205.5v-945h-151z" />
<glyph unicode="&#xe0;" horiz-adv-x="1038" d="M90 434q0 231 135 379q141 152 355 152q61 0 125 -23q68 -23 126 -55l48 -21l98 -51l2 -846h-150v54q-25 -10 -51 -23.5t-53 -22.5q-80 -23 -164 -22q-207 0 -338 135q-133 135 -133 344zM215 1413h242l245 -371l-122 -2zM246 436q0 -156 90 -246q47 -47 105.5 -70.5 t136.5 -23.5q92 0 153 25q29 10 53.5 27.5t46.5 29.5v557q-14 10 -34.5 25.5t-48.5 27.5q-68 29 -146 29q-156 0 -254 -108q-102 -106 -102 -273z" />
<glyph unicode="&#xe1;" horiz-adv-x="1019" d="M90 434q0 231 135 379q141 152 355 152q61 0 125 -23q68 -23 126 -55l48 -21l98 -51l2 -846h-150v54q-25 -10 -51 -23.5t-53 -22.5q-80 -23 -164 -22q-207 0 -338 135q-133 135 -133 344zM246 436q0 -156 90 -246q47 -47 105.5 -70.5t136.5 -23.5q92 0 153 25 q29 10 53.5 27.5t46.5 29.5v557q-14 10 -34.5 25.5t-48.5 27.5q-68 29 -146 29q-156 0 -254 -108q-102 -106 -102 -273zM379 1040l248 373h239l-362 -373h-125z" />
<glyph unicode="&#xe2;" horiz-adv-x="1060" d="M90 434q0 231 135 379q141 152 355 152q61 0 125 -23q68 -23 126 -55l48 -21l98 -51l2 -846h-150v54q-25 -10 -51 -23.5t-53 -22.5q-80 -23 -164 -22q-207 0 -338 135q-133 135 -133 344zM219 1022l254 389h148l256 -387l-138 -2l-192 211l-193 -211h-135zM246 436 q0 -156 90 -246q47 -47 105.5 -70.5t136.5 -23.5q92 0 153 25q29 10 53.5 27.5t46.5 29.5v557q-14 10 -34.5 25.5t-48.5 27.5q-68 29 -146 29q-156 0 -254 -108q-102 -106 -102 -273z" />
<glyph unicode="&#xe3;" horiz-adv-x="1036" d="M90 434q0 231 135 379q141 152 355 152q61 0 125 -23q68 -23 126 -55l48 -21l98 -51l2 -846h-150v54q-25 -10 -51 -23.5t-53 -22.5q-80 -23 -164 -22q-207 0 -338 135q-133 135 -133 344zM180 1096q0 63 12.5 104t34.5 74q25 37 63 53t85 16q70 0 192 -53 q119 -49 158 -49q16 0 35 16q8 6 15 23.5t13 60.5h111q0 -63 -11 -104t-34 -74q-49 -70 -147 -69q-74 0 -193 53q-123 49 -156 49q-16 0 -39 -16q-6 -6 -13 -22.5t-11 -61.5h-115zM246 436q0 -156 90 -246q47 -47 105.5 -70.5t136.5 -23.5q92 0 153 25q29 10 53.5 27.5 t46.5 29.5v557q-14 10 -34.5 25.5t-48.5 27.5q-68 29 -146 29q-156 0 -254 -108q-102 -106 -102 -273z" />
<glyph unicode="&#xe4;" horiz-adv-x="1054" d="M90 434q0 231 135 379q141 152 355 152q61 0 125 -23q68 -23 126 -55l48 -21l98 -51l2 -846h-150v54q-25 -10 -51 -23.5t-53 -22.5q-80 -23 -164 -22q-207 0 -338 135q-133 135 -133 344zM246 436q0 -156 90 -246q47 -47 105.5 -70.5t136.5 -23.5q92 0 153 25 q29 10 53.5 27.5t46.5 29.5v557q-14 10 -34.5 25.5t-48.5 27.5q-68 29 -146 29q-156 0 -254 -108q-102 -106 -102 -273zM311 1116v193h191v-193h-191zM592 1116v193h192v-191z" />
<glyph unicode="&#xe5;" horiz-adv-x="2048" />
<glyph unicode="&#xe6;" horiz-adv-x="1613" d="M49 434q0 233 137 379q139 152 355 152q57 0 125 -23q61 -20 125 -55l114 -84q25 53 55.5 84t47.5 39q74 39 166 39q168 0 278 -136q53 -68 80 -154.5t27 -205.5h-621v-94q18 -98 82 -172q86 -100 209 -101q84 0 155 45q39 27 72 53.5t84 75.5v-184q-35 -27 -69.5 -49.5 t-77.5 -42.5q-90 -45 -199 -45q-92 0 -170 41q-18 10 -43 30.5t-41 36.5v-94h-149v54q-27 -10 -52.5 -23.5t-54.5 -22.5q-80 -23 -164 -22q-207 0 -338 135q-133 135 -133 344zM205 436q0 -154 92 -246q90 -94 242 -94q92 0 151 25q29 10 54.5 27.5t46.5 29.5l2 557 q-16 10 -36 25.5t-48 27.5q-33 14 -69 21.5t-79 7.5q-152 0 -254 -108q-49 -53 -75.5 -121t-26.5 -152zM950 600h430v-2q-14 100 -61 156q-51 63 -141 63q-109 0 -177 -98q-16 -23 -28 -53.5t-23 -65.5z" />
<glyph unicode="&#xe7;" horiz-adv-x="897" d="M76 459q0 209 127 354q133 152 348 152q76 0 133 -15q31 -6 61.5 -15t71.5 -24v-168q-47 23 -76.5 33t-58.5 21q-57 20 -129 20q-145 0 -231 -98q-90 -102 -91 -260q0 -164 91 -260q43 -47 103 -72t140 -25q74 0 135 19q31 10 61 20.5t73 28.5v-160q-16 -4 -34 -10 t-42 -12q-29 -8 -56.5 -13.5t-58.5 -9.5q-12 0 -24.5 -1t-24.5 -3q-8 -2 -19.5 -16.5t-17.5 -14.5q39 -12 66 -51q27 -35 26 -86q0 -80 -65.5 -129t-159.5 -49l-121 14l19 115l90 -6q29 -2 50 3t34 13q23 12 22 37q0 27 -20 39q-12 10 -37 13t-78 3l37 127q-127 27 -215 119 q-129 137 -129 367z" />
<glyph unicode="&#xe8;" horiz-adv-x="1030" d="M78 473q0 207 125 346q127 145 323 146q190 0 314 -136q59 -66 90 -152.5t31 -209.5l-730 2v-37q6 -133 101 -227q51 -49 112.5 -76t139.5 -27q104 0 188 48q45 25 82 51t88 73v-182q-35 -27 -70.5 -49.5t-78.5 -40.5q-100 -47 -218 -47q-217 0 -358 145 q-139 150 -139 373zM254 600h526v-2q-23 100 -75 154q-31 31 -74 48t-103 17q-135 0 -215 -100q-39 -49 -59 -117zM266 1413h242l248 -371l-125 -2z" />
<glyph unicode="&#xe9;" horiz-adv-x="1030" d="M78 473q0 207 125 346q127 145 323 146q190 0 314 -136q59 -66 90 -152.5t31 -209.5l-730 2v-37q6 -133 101 -227q51 -49 112.5 -76t139.5 -27q104 0 188 48q45 25 82 51t88 73v-182q-35 -27 -70.5 -49.5t-78.5 -40.5q-100 -47 -218 -47q-217 0 -358 145 q-139 150 -139 373zM254 600h526v-2q-23 100 -75 154q-31 31 -74 48t-103 17q-135 0 -215 -100q-39 -49 -59 -117zM436 1040l248 373h240l-365 -373h-123z" />
<glyph unicode="&#xea;" horiz-adv-x="1030" d="M78 473q0 207 125 346q127 145 323 146q190 0 314 -136q59 -66 90 -152.5t31 -209.5l-730 2v-37q6 -133 101 -227q51 -49 112.5 -76t139.5 -27q104 0 188 48q45 25 82 51t88 73v-182q-35 -27 -70.5 -49.5t-78.5 -40.5q-100 -47 -218 -47q-217 0 -358 145 q-139 150 -139 373zM182 1022l254 389h148l258 -387l-137 -2l-195 211l-191 -211h-137zM254 600h526v-2q-23 100 -75 154q-31 31 -74 48t-103 17q-135 0 -215 -100q-39 -49 -59 -117z" />
<glyph unicode="&#xeb;" horiz-adv-x="1030" d="M78 473q0 207 125 346q127 145 323 146q190 0 314 -136q59 -66 90 -152.5t31 -209.5l-730 2v-37q6 -133 101 -227q51 -49 112.5 -76t139.5 -27q104 0 188 48q45 25 82 51t88 73v-182q-35 -27 -70.5 -49.5t-78.5 -40.5q-100 -47 -218 -47q-217 0 -358 145 q-139 150 -139 373zM254 600h526v-2q-23 100 -75 154q-31 31 -74 48t-103 17q-135 0 -215 -100q-39 -49 -59 -117zM279 1116v193h190v-193h-190zM559 1116v193h191v-191z" />
<glyph unicode="&#xec;" horiz-adv-x="403" d="M-39 1413h240l248 -371l-125 -2zM131 -27v973h150v-973h-150z" />
<glyph unicode="&#xed;" horiz-adv-x="403" d="M49 1040l248 373h240l-365 -373h-123zM133 -27v973h150v-973h-150z" />
<glyph unicode="&#xee;" horiz-adv-x="403" d="M-127 1022l254 389h147l256 -387l-137 -2l-192 211l-193 -211h-135zM127 -27v973h149v-973h-149z" />
<glyph unicode="&#xef;" horiz-adv-x="403" d="M-33 1116v193h191v-193h-191zM127 -27v973h149v-973h-149zM248 1116v193h190v-191z" />
<glyph unicode="&#xf0;" horiz-adv-x="1202" d="M80 455q0 221 149 364q147 145 381 146q78 0 152 -25q70 -23 143 -84q-45 113 -127 205q-16 16 -38.5 37.5t-55.5 46.5l-305 -141l-51 114l233 109q-29 16 -68.5 38.5t-93.5 47.5l60 114q92 -35 153.5 -65.5t104.5 -63.5l278 134l56 -115l-226 -105q84 -78 136 -151 q165 -244 165 -553q0 -246 -143 -397q-143 -158 -375 -158q-227 0 -377 143q-152 143 -151 359zM225 453q0 -156 109 -258q109 -106 272 -107q164 0 262 107q103 106 103 274q0 156 -103 258q-102 104 -264 104q-166 0 -272.5 -110.5t-106.5 -267.5z" />
<glyph unicode="&#xf1;" horiz-adv-x="1054" d="M127 -27v973h147v-123q47 66 101 97q80 45 176 45q170 0 274 -111q53 -55 78 -131t25 -168v-582h-150v551q0 72 -15 127.5t-44 89.5q-57 76 -168 76q-102 0 -166 -53q-33 -27 -59.5 -57.5t-49.5 -65.5v-668h-149zM170 1096q0 63 11.5 104t33.5 74q27 37 63.5 53t83.5 16 q74 0 193 -53q123 -49 158 -49q18 0 35 16q8 6 15 23.5t15 60.5h111q0 -63 -11.5 -104t-33.5 -74q-49 -70 -150 -69q-70 0 -192 53q-121 49 -156 49q-16 0 -37 -16q-8 -6 -14 -22.5t-12 -61.5h-113z" />
<glyph unicode="&#xf2;" horiz-adv-x="1165" d="M88 459q0 213 141 360q139 145 355 146q211 0 352 -146q141 -147 141 -360q0 -209 -139 -359q-143 -145 -354 -145q-213 0 -353 145q-143 150 -143 359zM244 459q0 -150 100 -250q100 -106 240 -107q137 0 239 105q99 105 99 252q0 150 -99 252q-100 106 -239 106 q-141 0 -240 -104q-100 -102 -100 -254zM340 1413h240l247 -371l-125 -2z" />
<glyph unicode="&#xf3;" horiz-adv-x="1165" d="M88 459q0 213 141 360q139 145 355 146q211 0 352 -146q141 -147 141 -360q0 -209 -139 -359q-143 -145 -354 -145q-213 0 -353 145q-143 150 -143 359zM244 459q0 -150 100 -250q100 -106 240 -107q137 0 239 105q99 105 99 252q0 150 -99 252q-100 106 -239 106 q-141 0 -240 -104q-100 -102 -100 -254zM508 1040l248 373h239l-362 -373h-125z" />
<glyph unicode="&#xf4;" horiz-adv-x="1165" d="M88 459q0 213 141 360q139 145 355 146q211 0 352 -146q141 -147 141 -360q0 -209 -139 -359q-143 -145 -354 -145q-213 0 -353 145q-143 150 -143 359zM244 459q0 -150 100 -250q100 -106 240 -107q137 0 239 105q99 105 99 252q0 150 -99 252q-100 106 -239 106 q-141 0 -240 -104q-100 -102 -100 -254zM254 1022l256 389h145l258 -387l-137 -2l-192 211l-193 -211h-137z" />
<glyph unicode="&#xf5;" horiz-adv-x="1165" d="M88 459q0 213 141 360q139 145 355 146q211 0 352 -146q141 -147 141 -360q0 -209 -139 -359q-143 -145 -354 -145q-213 0 -353 145q-143 150 -143 359zM223 1096q0 63 11.5 104t33.5 74q27 37 65 53t85 16q72 0 190 -53q61 -25 99 -37t61 -12q16 0 35 16q8 6 14 23.5 t14 60.5h111q0 -63 -11 -104t-34 -74q-25 -35 -62.5 -52t-84.5 -17q-74 0 -193 53q-123 49 -156 49q-16 0 -39 -16q-8 -6 -14 -22.5t-10 -61.5h-115zM244 459q0 -150 100 -250q100 -106 240 -107q137 0 239 105q99 105 99 252q0 150 -99 252q-100 106 -239 106 q-141 0 -240 -104q-100 -102 -100 -254z" />
<glyph unicode="&#xf6;" horiz-adv-x="1165" d="M88 459q0 213 141 360q139 145 355 146q211 0 352 -146q141 -147 141 -360q0 -209 -139 -359q-143 -145 -354 -145q-213 0 -353 145q-143 150 -143 359zM244 459q0 -150 100 -250q100 -106 240 -107q137 0 239 105q99 105 99 252q0 150 -99 252q-100 106 -239 106 q-141 0 -240 -104q-100 -102 -100 -254zM350 1116v193h191v-193h-191zM631 1116v193h190v-191z" />
<glyph unicode="&#xf7;" horiz-adv-x="1419" d="M147 647v144h1125v-144h-1125zM629 272v226h162v-226h-162zM629 940v225h162v-223z" />
<glyph unicode="&#xf8;" horiz-adv-x="1165" d="M84 -16l125 143q-117 131 -117 332q0 215 139 360q72 74 161 110t194 36q160 0 278 -82l109 123l41 -33l-37 -80q16 -16 34.5 -40t35 -51.5t26.5 -56t10 -53.5q0 -4 -9 -19.5t-20.5 -31.5t-20.5 -31.5t-9 -19.5q49 -104 37 -234q-18 -152 -121 -256q-72 -74 -161 -109.5 t-193 -35.5q-162 0 -281 84l-117 -135zM248 459q0 -121 65 -211l449 516q-76 53 -176 53q-139 0 -240 -104q-98 -100 -98 -254zM408 156q76 -53 178 -54q141 0 239 105q101 102 101 252q0 121 -70 213z" />
<glyph unicode="&#xf9;" horiz-adv-x="1054" d="M127 352v594h149v-573q0 -131 70 -204t176 -73q125 2 187 56q74 74 69 131v663h150l4 -610q-12 -154 -45 -197q-57 -90 -137 -133q-80 -45 -234 -51q-184 0 -286.5 102.5t-102.5 294.5zM281 1413h241l248 -371l-125 -2z" />
<glyph unicode="&#xfa;" horiz-adv-x="1054" d="M127 352v594h149v-573q0 -131 70 -204t176 -73q125 2 187 56q74 74 69 131v663h150l4 -610q-12 -154 -45 -197q-57 -90 -137 -133q-80 -45 -234 -51q-184 0 -286.5 102.5t-102.5 294.5zM438 1040l248 373h240l-363 -373h-125z" />
<glyph unicode="&#xfb;" horiz-adv-x="1054" d="M127 352v594h149v-573q0 -131 70 -204t176 -73q125 2 187 56q74 74 69 131v663h150l4 -610q-12 -154 -45 -197q-57 -90 -137 -133q-80 -45 -234 -51q-184 0 -286.5 102.5t-102.5 294.5zM197 1022l256 389h145l258 -387l-137 -2l-195 211l-190 -211h-137z" />
<glyph unicode="&#xfc;" horiz-adv-x="1054" d="M127 352v594h149v-573q0 -131 70 -204t176 -73q125 2 187 56q74 74 69 131v663h150l4 -610q-12 -154 -45 -197q-57 -90 -137 -133q-80 -45 -234 -51q-184 0 -286.5 102.5t-102.5 294.5zM293 1116v193h190v-193h-190zM573 1116v193h191v-191z" />
<glyph unicode="&#xfd;" horiz-adv-x="897" d="M-14 946h164l315 -612l299 610h158l-711 -1442h-158l334 674zM367 1040l247 373h240l-365 -373h-122z" />
<glyph unicode="&#xfe;" horiz-adv-x="1097" d="M119 -498v1921h149v-516q45 25 99 37q37 10 71.5 15.5t69.5 5.5q215 0 354 -141.5t139 -362.5q0 -203 -139 -352q-139 -154 -334 -154q-86 0 -155 18q-27 6 -52.5 16.5t-52.5 22.5v-510h-149zM268 162q16 -10 38 -17.5t46 -17.5q31 -10 67 -17.5t77 -7.5q158 0 249 101 q97 100 97 256t-103 254q-102 104 -256 104q-84 0 -139 -24q-53 -18 -76 -33v-598z" />
<glyph unicode="&#xff;" horiz-adv-x="897" d="M-14 946h164l315 -612l299 610h158l-711 -1442h-158l334 674zM209 1116v193h190v-193h-190zM489 1116v193h191v-191z" />
<glyph unicode="&#x152;" horiz-adv-x="1927" d="M102 707q0 307 217 510q219 207 539 206h957v-141h-662v-508h643v-139l-643 -2v-516h676v-144h-967q-326 0 -543 207q-217 209 -217 527zM270 698q0 -250 174 -417q174 -164 441 -164h108v1165h-114q-260 0 -435 -168q-86 -86 -130 -187.5t-44 -228.5z" />
<glyph unicode="&#x153;" horiz-adv-x="1792" d="M102 459q0 213 134 358q135 147 337 148q143 0 240 -50q88 -45 152 -131q68 92 143 131q92 49 209 50q166 0 268 -136q51 -68 77 -154.5t26 -205.5h-633v-37q6 -137 86 -229q88 -100 215 -101q86 0 157 45q39 27 72 53.5t84 75.5v-184q-31 -27 -64.5 -49.5t-76.5 -42.5 q-94 -45 -197 -45q-121 0 -221 49q-90 43 -141 148q-29 -41 -66 -74t-80 -60q-115 -63 -256 -63q-197 0 -331 147q-133 145 -134 357zM258 459q0 -150 94 -252q94 -104 226 -105q133 0 225 103q94 107 94 254q0 152 -94 254q-96 104 -225 104q-133 0 -226 -102 q-94 -106 -94 -256zM1073 600h436v-2q-14 100 -61 156q-53 63 -145 63q-111 0 -179 -98q-31 -43 -51 -119z" />
<glyph unicode="&#x178;" horiz-adv-x="1253" d="M-25 1423h197l457 -540l452 538h197l-571 -682v-766h-160v766zM391 1563v192h191v-192h-191zM672 1563v192h190v-190z" />
<glyph unicode="&#x2c6;" d="M29 1022l256 389h145l258 -387l-137 -2l-195 211l-190 -211h-137z" />
<glyph unicode="&#x2dc;" d="M-2 1096q0 63 11 104t34 74q27 37 64.5 53t85.5 16q72 0 190 -53q61 -25 99 -37t61 -12q16 0 35 16q8 6 14 23.5t14 60.5h111q0 -63 -11.5 -104t-33.5 -74q-25 -35 -63 -52t-85 -17q-74 0 -192 53q-123 49 -156 49q-16 0 -39 -16q-8 -6 -14 -22.5t-10 -61.5h-115z" />
<glyph unicode="&#x2000;" horiz-adv-x="944" />
<glyph unicode="&#x2001;" horiz-adv-x="1888" />
<glyph unicode="&#x2002;" horiz-adv-x="944" />
<glyph unicode="&#x2003;" horiz-adv-x="1888" />
<glyph unicode="&#x2004;" horiz-adv-x="629" />
<glyph unicode="&#x2005;" horiz-adv-x="472" />
<glyph unicode="&#x2006;" horiz-adv-x="314" />
<glyph unicode="&#x2007;" horiz-adv-x="314" />
<glyph unicode="&#x2008;" horiz-adv-x="236" />
<glyph unicode="&#x2009;" horiz-adv-x="377" />
<glyph unicode="&#x200a;" horiz-adv-x="104" />
<glyph unicode="&#x2010;" horiz-adv-x="673" d="M68 492v126h536v-126h-536z" />
<glyph unicode="&#x2011;" horiz-adv-x="673" d="M68 492v126h536v-126h-536z" />
<glyph unicode="&#x2012;" horiz-adv-x="673" d="M68 492v126h536v-126h-536z" />
<glyph unicode="&#x2013;" horiz-adv-x="1075" d="M-12 453v118h1099v-116z" />
<glyph unicode="&#x2014;" horiz-adv-x="2150" d="M12 453v118h2126v-116z" />
<glyph unicode="&#x2018;" horiz-adv-x="380" d="M92 936v168q0 131 49 211q27 39 66 68.5t90 64.5v-127q-16 -23 -29 -33q-4 -4 -12 -16q-8 -8 -10 -15q-4 -12 -6 -29.5t-4 -39.5h40v-252h-184z" />
<glyph unicode="&#x2019;" horiz-adv-x="380" d="M82 915v127q10 10 16 18.5t13 14.5q10 10 14 17q8 8 10 14q4 12 6 29.5t4 40.5h-43v251h185v-167q0 -66 -11.5 -118t-37.5 -93q-25 -39 -64 -69t-92 -65z" />
<glyph unicode="&#x201a;" horiz-adv-x="380" d="M98 -27v252h185v-168q0 -131 -50 -211q-23 -35 -51 -66.5t-84 -66.5v127q12 16 19.5 31.5t11.5 32.5q10 27 10 69h-41z" />
<glyph unicode="&#x201c;" horiz-adv-x="851" d="M104 936v168q0 131 50 211q25 39 64.5 68.5t90.5 64.5v-127q-10 -10 -16 -18.5t-12 -14.5q-4 -4 -7.5 -8t-7.5 -8q-8 -8 -10 -15q-4 -12 -6 -29.5t-2 -39.5h41v-252h-185zM553 936v168q0 131 49 211q25 39 65 68.5t91 64.5v-127q-10 -10 -16.5 -18.5t-12.5 -14.5 q-4 -4 -7 -8t-7 -8q-8 -8 -10 -15q-4 -12 -6.5 -29.5t-2.5 -39.5h41v-252h-184z" />
<glyph unicode="&#x201d;" horiz-adv-x="851" d="M94 915v127q8 10 15.5 18.5t13.5 14.5q4 4 7 8t7 9q8 8 8 14q10 27 11 70h-41v251h184v-167q0 -131 -49 -211q-25 -39 -65 -69t-91 -65zM543 915v127q8 10 15 18.5t13 14.5q4 4 7.5 8t7.5 9q8 8 8 14q10 27 10 70h-41v251h185v-167q0 -131 -50 -211q-25 -39 -64.5 -69 t-90.5 -65z" />
<glyph unicode="&#x201e;" horiz-adv-x="851" d="M98 -160q10 12 16.5 19.5t12.5 13.5q10 10 14 16q10 10 11 17q4 10 6 27.5t2 39.5h-41v252h184v-168q0 -129 -51 -213q-25 -39 -63.5 -67.5t-90.5 -63.5v127zM539 -160q10 12 16 19.5t12 13.5q10 10 15 16q10 10 10 17q4 10 6 27.5t2 39.5h-41v252h184v-168 q0 -129 -51 -213q-25 -39 -63.5 -67.5t-89.5 -63.5v127z" />
<glyph unicode="&#x2022;" horiz-adv-x="1075" d="M262 698q0 115 80 195q82 82 195 82q115 0 194 -80q82 -82 82 -197t-80 -194q-82 -82 -194 -82q-115 0 -195 80q-82 82 -82 196z" />
<glyph unicode="&#x2026;" horiz-adv-x="2150" d="M301 -27v254h182v-254h-182zM983 -27v254h182v-254h-182zM1665 -27v254h182v-254h-182z" />
<glyph unicode="&#x202f;" horiz-adv-x="377" />
<glyph unicode="&#x2039;" horiz-adv-x="604" d="M2 473l406 488h190l-403 -488l407 -487h-190z" />
<glyph unicode="&#x203a;" horiz-adv-x="604" d="M0 -14l410 487l-406 488h193l403 -488l-407 -487h-193z" />
<glyph unicode="&#x205f;" horiz-adv-x="472" />
<glyph unicode="&#x20ac;" horiz-adv-x="1456" d="M27 430v133h114q-4 33 -7 67t-3 68q0 92 23 183h-127v133h174q27 59 65.5 113.5t87.5 101.5q225 213 559 213q115 0 244 -33q68 -16 128.5 -38.5t121.5 -55.5v-182q-78 47 -139.5 72.5t-122.5 45.5q-119 39 -250 39q-129 0 -233.5 -43t-190.5 -127q-27 -25 -47.5 -50.5 t-36.5 -53.5h969v-133h-1030q-27 -82 -27 -185q0 -35 4 -68.5t8 -64.5h1045v-133h-1000q39 -92 111 -160q166 -166 434 -166q145 0 268 46q63 23 122 50t132 68v-170q-59 -35 -119.5 -59.5t-125.5 -44.5q-141 -41 -258 -41q-340 0 -566 209q-121 113 -178 266h-149z" />
<glyph unicode="&#x25fc;" horiz-adv-x="942" d="M0 0v942h942v-942h-942z" />
</font>
</defs>
</svg>
